<svg width="72" height="72" viewBox="0 0 24 24" fill="none" xmlns="http://www.w3.org/2000/svg" data-reactroot="">
<path fill="#8FE4FF" d="M2 1C2.55228 1 3 1.44772 3 2V21H22C22.5523 21 23 21.4477 23 22C23 22.5523 22.5523 23 22 23H2C1.44772 23 1 22.5523 1 22V2C1 1.44772 1.44772 1 2 1Z" clip-rule="evenodd" fill-rule="evenodd" undefined="1"></path>
<path fill="#4382FF" d="M6 7C5.44772 7 5 7.44772 5 8V18C5 18.5523 5.44772 19 6 19H8C8.55228 19 9 18.5523 9 18V8C9 7.44772 8.55228 7 8 7H6Z" undefined="1"></path>
<path fill="#4382FF" d="M12 1C11.4477 1 11 1.44772 11 2V18C11 18.5523 11.4477 19 12 19H14C14.5523 19 15 18.5523 15 18V2C15 1.44772 14.5523 1 14 1H12Z" undefined="1"></path>
<path fill="#4382FF" d="M18 11C17.4477 11 17 11.4477 17 12V18C17 18.5523 17.4477 19 18 19H20C20.5523 19 21 18.5523 21 18V12C21 11.4477 20.5523 11 20 11H18Z" undefined="1"></path>
</svg>
